<svg xmlns="http://www.w3.org/2000/svg" width="256" height="256"><path fill-opacity=".016" d="M0 128.004v128.004l128.25-.254 128.25-.254.254-127.75L257.008 0H0v128.004m.485.496c0 70.4.119 99.053.265 63.672.146-35.38.146-92.98 0-128C.604 29.153.485 58.1.485 128.5" fill="#1976D2" fill-rule="evenodd"/><path fill-opacity=".175" d="M23 128v128h59.986l.257-68.82.257-68.821 20.626 31.571a88286.113 88286.113 0 0144.905 68.82L173.309 256H233V0h-60.027l.264 70.45c.163 43.676-.092 70.095-.672 69.516-.513-.514-10.413-15.553-22-33.42A904074.178 904074.178 0 01105.5 37.04L81.5.02 52.25.01 23 0v128" fill="#1976D2" fill-rule="evenodd"/><path fill-opacity=".053" d="M24 127.985V256h58.026l-.04-69.241c-.022-38.083.31-69.33.737-69.438.427-.108 10.677 15.084 22.777 33.759 12.1 18.676 32.35 49.903 45 69.393l23 35.435 29.75.046L233 256V0H174.013l-.256 71.245-.257 71.245-23-35.38c-12.65-19.459-33.414-51.406-46.143-70.995L81.214.5 52.607.235 24-.031v128.016" fill="#1976D2" fill-rule="evenodd"/><path fill-opacity=".153" d="M173.757 71.529l-.257 71.529-21.996-34.029C139.406 90.313 129.157 75 128.729 75c-.428 0-.654 25.087-.503 55.75l.274 55.75 22.631 34.5 22.632 34.5 29.118.265 29.119.265V0H174.013l-.256 71.529" fill="#1976D2" fill-rule="evenodd"/></svg>